  0
SECTION
  2
BLOCKS
  0
ENDSEC
  0
SECTION
  2
ENTITIES
  0
LINE
  8
0
 10
0.0271454
 20
-0.52002
 11
0.0324402
 21
-0.49884
  0
LINE
  8
0
 10
0.0324402
 20
-0.49884
 11
0.0335693
 21
-0.461044
  0
LINE
  8
0
 10
0.0335693
 20
-0.461044
 11
0.0321198
 21
-0.446838
  0
LINE
  8
0
 10
0.0321198
 20
-0.446838
 11
0.08461
 21
-0.439926
  0
LINE
  8
0
 10
0.08461
 20
-0.439926
 11
0.0868835
 21
-0.454025
  0
LINE
  8
0
 10
0.0868835
 20
-0.454025
 11
0.0977478
 21
-0.490234
  0
LINE
  8
0
 10
0.0977478
 20
-0.490234
 11
0.108353
 21
-0.509323
  0
LINE
  8
0
 10
0.108353
 20
-0.509323
 11
0.121643
 21
-0.524368
  0
LINE
  8
0
 10
0.121643
 20
-0.524368
 11
0.15683
 21
-0.514938
  0
LINE
  8
0
 10
0.15683
 20
-0.514938
 11
0.160812
 21
-0.49527
  0
LINE
  8
0
 10
0.160812
 20
-0.49527
 11
0.160446
 21
-0.473434
  0
LINE
  8
0
 10
0.160446
 20
-0.473434
 11
0.151764
 21
-0.43663
  0
LINE
  8
0
 10
0.151764
 20
-0.43663
 11
0.146683
 21
-0.423294
  0
LINE
  8
0
 10
0.146683
 20
-0.423294
 11
0.195587
 21
-0.40303
  0
LINE
  8
0
 10
0.195587
 20
-0.40303
 11
0.201431
 21
-0.416061
  0
LINE
  8
0
 10
0.201431
 20
-0.416061
 11
0.221298
 21
-0.448227
  0
LINE
  8
0
 10
0.221298
 20
-0.448227
 11
0.236481
 21
-0.463928
  0
LINE
  8
0
 10
0.236481
 20
-0.463928
 11
0.253204
 21
-0.475021
  0
LINE
  8
0
 10
0.253204
 20
-0.475021
 11
0.284775
 21
-0.456802
  0
LINE
  8
0
 10
0.284775
 20
-0.456802
 11
0.283524
 21
-0.436768
  0
LINE
  8
0
 10
0.283524
 20
-0.436768
 11
0.277527
 21
-0.415771
  0
LINE
  8
0
 10
0.277527
 20
-0.415771
 11
0.259598
 21
-0.382477
  0
LINE
  8
0
 10
0.259598
 20
-0.382477
 11
0.251236
 21
-0.370895
  0
LINE
  8
0
 10
0.251236
 20
-0.370895
 11
0.293228
 21
-0.338684
  0
LINE
  8
0
 10
0.293228
 20
-0.338684
 11
0.302246
 21
-0.349747
  0
LINE
  8
0
 10
0.302246
 20
-0.349747
 11
0.329773
 21
-0.375671
  0
LINE
  8
0
 10
0.329773
 20
-0.375671
 11
0.348495
 21
-0.386902
  0
LINE
  8
0
 10
0.348495
 20
-0.386902
 11
0.367523
 21
-0.393295
  0
LINE
  8
0
 10
0.367523
 20
-0.393295
 11
0.393295
 21
-0.367523
  0
LINE
  8
0
 10
0.393295
 20
-0.367523
 11
0.386902
 21
-0.348495
  0
LINE
  8
0
 10
0.386902
 20
-0.348495
 11
0.375671
 21
-0.329773
  0
LINE
  8
0
 10
0.375671
 20
-0.329773
 11
0.349747
 21
-0.302246
  0
LINE
  8
0
 10
0.349747
 20
-0.302246
 11
0.338684
 21
-0.293228
  0
LINE
  8
0
 10
0.338684
 20
-0.293228
 11
0.370895
 21
-0.251236
  0
LINE
  8
0
 10
0.370895
 20
-0.251236
 11
0.382477
 21
-0.259598
  0
LINE
  8
0
 10
0.382477
 20
-0.259598
 11
0.415771
 21
-0.277527
  0
LINE
  8
0
 10
0.415771
 20
-0.277527
 11
0.436768
 21
-0.283524
  0
LINE
  8
0
 10
0.436768
 20
-0.283524
 11
0.456802
 21
-0.284775
  0
LINE
  8
0
 10
0.456802
 20
-0.284775
 11
0.475021
 21
-0.253204
  0
LINE
  8
0
 10
0.475021
 20
-0.253204
 11
0.463928
 21
-0.236481
  0
LINE
  8
0
 10
0.463928
 20
-0.236481
 11
0.448227
 21
-0.221298
  0
LINE
  8
0
 10
0.448227
 20
-0.221298
 11
0.416061
 21
-0.201431
  0
LINE
  8
0
 10
0.416061
 20
-0.201431
 11
0.40303
 21
-0.195587
  0
LINE
  8
0
 10
0.40303
 20
-0.195587
 11
0.423294
 21
-0.146683
  0
LINE
  8
0
 10
0.423294
 20
-0.146683
 11
0.43663
 21
-0.151764
  0
LINE
  8
0
 10
0.43663
 20
-0.151764
 11
0.473434
 21
-0.160446
  0
LINE
  8
0
 10
0.473434
 20
-0.160446
 11
0.49527
 21
-0.160812
  0
LINE
  8
0
 10
0.49527
 20
-0.160812
 11
0.514938
 21
-0.15683
  0
LINE
  8
0
 10
0.514938
 20
-0.15683
 11
0.524368
 21
-0.121643
  0
LINE
  8
0
 10
0.524368
 20
-0.121643
 11
0.509323
 21
-0.108353
  0
LINE
  8
0
 10
0.509323
 20
-0.108353
 11
0.490234
 21
-0.0977478
  0
LINE
  8
0
 10
0.490234
 20
-0.0977478
 11
0.454025
 21
-0.0868835
  0
LINE
  8
0
 10
0.454025
 20
-0.0868835
 11
0.439926
 21
-0.08461
  0
LINE
  8
0
 10
0.439926
 20
-0.08461
 11
0.446838
 21
-0.032135
  0
LINE
  8
0
 10
0.446838
 20
-0.032135
 11
0.461044
 21
-0.0335846
  0
LINE
  8
0
 10
0.461044
 20
-0.0335846
 11
0.49884
 21
-0.0324554
  0
LINE
  8
0
 10
0.49884
 20
-0.0324554
 11
0.52002
 21
-0.0271606
  0
LINE
  8
0
 10
0.52002
 20
-0.0271606
 11
0.537994
 21
-0.018219
  0
LINE
  8
0
 10
0.537994
 20
-0.018219
 11
0.537994
 21
0.0182037
  0
LINE
  8
0
 10
0.537994
 20
0.0182037
 11
0.52002
 21
0.0271454
  0
LINE
  8
0
 10
0.52002
 20
0.0271454
 11
0.49884
 21
0.0324402
  0
LINE
  8
0
 10
0.49884
 20
0.0324402
 11
0.461044
 21
0.0335693
  0
LINE
  8
0
 10
0.461044
 20
0.0335693
 11
0.446838
 21
0.0321198
  0
LINE
  8
0
 10
0.446838
 20
0.0321198
 11
0.439926
 21
0.08461
  0
LINE
  8
0
 10
0.439926
 20
0.08461
 11
0.454025
 21
0.0868835
  0
LINE
  8
0
 10
0.454025
 20
0.0868835
 11
0.490234
 21
0.0977478
  0
LINE
  8
0
 10
0.490234
 20
0.0977478
 11
0.509323
 21
0.108353
  0
LINE
  8
0
 10
0.509323
 20
0.108353
 11
0.524368
 21
0.121643
  0
LINE
  8
0
 10
0.524368
 20
0.121643
 11
0.514938
 21
0.15683
  0
LINE
  8
0
 10
0.514938
 20
0.15683
 11
0.49527
 21
0.160812
  0
LINE
  8
0
 10
0.49527
 20
0.160812
 11
0.473434
 21
0.160446
  0
LINE
  8
0
 10
0.473434
 20
0.160446
 11
0.43663
 21
0.151764
  0
LINE
  8
0
 10
0.43663
 20
0.151764
 11
0.423294
 21
0.146683
  0
LINE
  8
0
 10
0.423294
 20
0.146683
 11
0.40303
 21
0.195587
  0
LINE
  8
0
 10
0.40303
 20
0.195587
 11
0.416061
 21
0.201431
  0
LINE
  8
0
 10
0.416061
 20
0.201431
 11
0.448227
 21
0.221298
  0
LINE
  8
0
 10
0.448227
 20
0.221298
 11
0.463928
 21
0.236481
  0
LINE
  8
0
 10
0.463928
 20
0.236481
 11
0.475021
 21
0.253204
  0
LINE
  8
0
 10
0.475021
 20
0.253204
 11
0.456802
 21
0.284775
  0
LINE
  8
0
 10
0.456802
 20
0.284775
 11
0.436768
 21
0.283524
  0
LINE
  8
0
 10
0.436768
 20
0.283524
 11
0.415771
 21
0.277527
  0
LINE
  8
0
 10
0.415771
 20
0.277527
 11
0.382477
 21
0.259598
  0
LINE
  8
0
 10
0.382477
 20
0.259598
 11
0.370895
 21
0.251236
  0
LINE
  8
0
 10
0.370895
 20
0.251236
 11
0.338684
 21
0.293228
  0
LINE
  8
0
 10
0.338684
 20
0.293228
 11
0.349747
 21
0.302246
  0
LINE
  8
0
 10
0.349747
 20
0.302246
 11
0.375671
 21
0.329773
  0
LINE
  8
0
 10
0.375671
 20
0.329773
 11
0.386902
 21
0.348495
  0
LINE
  8
0
 10
0.386902
 20
0.348495
 11
0.393295
 21
0.367523
  0
LINE
  8
0
 10
0.393295
 20
0.367523
 11
0.367523
 21
0.393295
  0
LINE
  8
0
 10
0.367523
 20
0.393295
 11
0.348495
 21
0.386902
  0
LINE
  8
0
 10
0.348495
 20
0.386902
 11
0.329773
 21
0.375671
  0
LINE
  8
0
 10
0.329773
 20
0.375671
 11
0.302246
 21
0.349747
  0
LINE
  8
0
 10
0.302246
 20
0.349747
 11
0.293228
 21
0.338684
  0
LINE
  8
0
 10
0.293228
 20
0.338684
 11
0.251236
 21
0.370895
  0
LINE
  8
0
 10
0.251236
 20
0.370895
 11
0.259598
 21
0.382477
  0
LINE
  8
0
 10
0.259598
 20
0.382477
 11
0.277527
 21
0.415771
  0
LINE
  8
0
 10
0.277527
 20
0.415771
 11
0.283524
 21
0.436768
  0
LINE
  8
0
 10
0.283524
 20
0.436768
 11
0.284775
 21
0.456802
  0
LINE
  8
0
 10
0.284775
 20
0.456802
 11
0.253204
 21
0.475021
  0
LINE
  8
0
 10
0.253204
 20
0.475021
 11
0.236481
 21
0.463928
  0
LINE
  8
0
 10
0.236481
 20
0.463928
 11
0.221298
 21
0.448227
  0
LINE
  8
0
 10
0.221298
 20
0.448227
 11
0.201431
 21
0.416061
  0
LINE
  8
0
 10
0.201431
 20
0.416061
 11
0.195587
 21
0.40303
  0
LINE
  8
0
 10
0.195587
 20
0.40303
 11
0.146683
 21
0.423294
  0
LINE
  8
0
 10
0.146683
 20
0.423294
 11
0.151764
 21
0.43663
  0
LINE
  8
0
 10
0.151764
 20
0.43663
 11
0.160446
 21
0.473434
  0
LINE
  8
0
 10
0.160446
 20
0.473434
 11
0.160812
 21
0.49527
  0
LINE
  8
0
 10
0.160812
 20
0.49527
 11
0.15683
 21
0.514938
  0
LINE
  8
0
 10
0.15683
 20
0.514938
 11
0.121643
 21
0.524368
  0
LINE
  8
0
 10
0.121643
 20
0.524368
 11
0.108353
 21
0.509323
  0
LINE
  8
0
 10
0.108353
 20
0.509323
 11
0.0977478
 21
0.490234
  0
LINE
  8
0
 10
0.0977478
 20
0.490234
 11
0.0868835
 21
0.454025
  0
LINE
  8
0
 10
0.0868835
 20
0.454025
 11
0.08461
 21
0.439926
  0
LINE
  8
0
 10
0.08461
 20
0.439926
 11
0.032135
 21
0.446838
  0
LINE
  8
0
 10
0.032135
 20
0.446838
 11
0.0335846
 21
0.461044
  0
LINE
  8
0
 10
0.0335846
 20
0.461044
 11
0.0324554
 21
0.49884
  0
LINE
  8
0
 10
0.0324554
 20
0.49884
 11
0.0271606
 21
0.52002
  0
LINE
  8
0
 10
0.0271606
 20
0.52002
 11
0.018219
 21
0.537994
  0
LINE
  8
0
 10
0.018219
 20
0.537994
 11
-0.0182037
 21
0.537994
  0
LINE
  8
0
 10
-0.0182037
 20
0.537994
 11
-0.0271454
 21
0.52002
  0
LINE
  8
0
 10
-0.0271454
 20
0.52002
 11
-0.0324402
 21
0.49884
  0
LINE
  8
0
 10
-0.0324402
 20
0.49884
 11
-0.0335693
 21
0.461044
  0
LINE
  8
0
 10
-0.0335693
 20
0.461044
 11
-0.0321198
 21
0.446838
  0
LINE
  8
0
 10
-0.0321198
 20
0.446838
 11
-0.08461
 21
0.439926
  0
LINE
  8
0
 10
-0.08461
 20
0.439926
 11
-0.0868835
 21
0.454025
  0
LINE
  8
0
 10
-0.0868835
 20
0.454025
 11
-0.0977478
 21
0.490234
  0
LINE
  8
0
 10
-0.0977478
 20
0.490234
 11
-0.108353
 21
0.509323
  0
LINE
  8
0
 10
-0.108353
 20
0.509323
 11
-0.121643
 21
0.524368
  0
LINE
  8
0
 10
-0.121643
 20
0.524368
 11
-0.15683
 21
0.514938
  0
LINE
  8
0
 10
-0.15683
 20
0.514938
 11
-0.160812
 21
0.49527
  0
LINE
  8
0
 10
-0.160812
 20
0.49527
 11
-0.160446
 21
0.473434
  0
LINE
  8
0
 10
-0.160446
 20
0.473434
 11
-0.151764
 21
0.43663
  0
LINE
  8
0
 10
-0.151764
 20
0.43663
 11
-0.146683
 21
0.423294
  0
LINE
  8
0
 10
-0.146683
 20
0.423294
 11
-0.195587
 21
0.40303
  0
LINE
  8
0
 10
-0.195587
 20
0.40303
 11
-0.201431
 21
0.416061
  0
LINE
  8
0
 10
-0.201431
 20
0.416061
 11
-0.221298
 21
0.448227
  0
LINE
  8
0
 10
-0.221298
 20
0.448227
 11
-0.236481
 21
0.463928
  0
LINE
  8
0
 10
-0.236481
 20
0.463928
 11
-0.253204
 21
0.475021
  0
LINE
  8
0
 10
-0.253204
 20
0.475021
 11
-0.284775
 21
0.456802
  0
LINE
  8
0
 10
-0.284775
 20
0.456802
 11
-0.283524
 21
0.436768
  0
LINE
  8
0
 10
-0.283524
 20
0.436768
 11
-0.277527
 21
0.415771
  0
LINE
  8
0
 10
-0.277527
 20
0.415771
 11
-0.259598
 21
0.382477
  0
LINE
  8
0
 10
-0.259598
 20
0.382477
 11
-0.251236
 21
0.370895
  0
LINE
  8
0
 10
-0.251236
 20
0.370895
 11
-0.293228
 21
0.338684
  0
LINE
  8
0
 10
-0.293228
 20
0.338684
 11
-0.302246
 21
0.349747
  0
LINE
  8
0
 10
-0.302246
 20
0.349747
 11
-0.329773
 21
0.375671
  0
LINE
  8
0
 10
-0.329773
 20
0.375671
 11
-0.348495
 21
0.386902
  0
LINE
  8
0
 10
-0.348495
 20
0.386902
 11
-0.367523
 21
0.393295
  0
LINE
  8
0
 10
-0.367523
 20
0.393295
 11
-0.393295
 21
0.367523
  0
LINE
  8
0
 10
-0.393295
 20
0.367523
 11
-0.386902
 21
0.348495
  0
LINE
  8
0
 10
-0.386902
 20
0.348495
 11
-0.375671
 21
0.329773
  0
LINE
  8
0
 10
-0.375671
 20
0.329773
 11
-0.349747
 21
0.302246
  0
LINE
  8
0
 10
-0.349747
 20
0.302246
 11
-0.338684
 21
0.293228
  0
LINE
  8
0
 10
-0.338684
 20
0.293228
 11
-0.370895
 21
0.251236
  0
LINE
  8
0
 10
-0.370895
 20
0.251236
 11
-0.382477
 21
0.259598
  0
LINE
  8
0
 10
-0.382477
 20
0.259598
 11
-0.415771
 21
0.277527
  0
LINE
  8
0
 10
-0.415771
 20
0.277527
 11
-0.436768
 21
0.283524
  0
LINE
  8
0
 10
-0.436768
 20
0.283524
 11
-0.456802
 21
0.284775
  0
LINE
  8
0
 10
-0.456802
 20
0.284775
 11
-0.475021
 21
0.253204
  0
LINE
  8
0
 10
-0.475021
 20
0.253204
 11
-0.463928
 21
0.236481
  0
LINE
  8
0
 10
-0.463928
 20
0.236481
 11
-0.448227
 21
0.221298
  0
LINE
  8
0
 10
-0.448227
 20
0.221298
 11
-0.416061
 21
0.201431
  0
LINE
  8
0
 10
-0.416061
 20
0.201431
 11
-0.40303
 21
0.195587
  0
LINE
  8
0
 10
-0.40303
 20
0.195587
 11
-0.423294
 21
0.146683
  0
LINE
  8
0
 10
-0.423294
 20
0.146683
 11
-0.43663
 21
0.151764
  0
LINE
  8
0
 10
-0.43663
 20
0.151764
 11
-0.473434
 21
0.160446
  0
LINE
  8
0
 10
-0.473434
 20
0.160446
 11
-0.49527
 21
0.160812
  0
LINE
  8
0
 10
-0.49527
 20
0.160812
 11
-0.514938
 21
0.15683
  0
LINE
  8
0
 10
-0.514938
 20
0.15683
 11
-0.524368
 21
0.121643
  0
LINE
  8
0
 10
-0.524368
 20
0.121643
 11
-0.509323
 21
0.108353
  0
LINE
  8
0
 10
-0.509323
 20
0.108353
 11
-0.490234
 21
0.0977478
  0
LINE
  8
0
 10
-0.490234
 20
0.0977478
 11
-0.454025
 21
0.0868835
  0
LINE
  8
0
 10
-0.454025
 20
0.0868835
 11
-0.439926
 21
0.08461
  0
LINE
  8
0
 10
-0.439926
 20
0.08461
 11
-0.446838
 21
0.032135
  0
LINE
  8
0
 10
-0.446838
 20
0.032135
 11
-0.461044
 21
0.0335846
  0
LINE
  8
0
 10
-0.461044
 20
0.0335846
 11
-0.49884
 21
0.0324554
  0
LINE
  8
0
 10
-0.49884
 20
0.0324554
 11
-0.52002
 21
0.0271606
  0
LINE
  8
0
 10
-0.52002
 20
0.0271606
 11
-0.537994
 21
0.018219
  0
LINE
  8
0
 10
-0.537994
 20
0.018219
 11
-0.537994
 21
-0.0182037
  0
LINE
  8
0
 10
-0.537994
 20
-0.0182037
 11
-0.52002
 21
-0.0271454
  0
LINE
  8
0
 10
-0.52002
 20
-0.0271454
 11
-0.49884
 21
-0.0324402
  0
LINE
  8
0
 10
-0.49884
 20
-0.0324402
 11
-0.461044
 21
-0.0335693
  0
LINE
  8
0
 10
-0.461044
 20
-0.0335693
 11
-0.446838
 21
-0.0321198
  0
LINE
  8
0
 10
-0.446838
 20
-0.0321198
 11
-0.439926
 21
-0.08461
  0
LINE
  8
0
 10
-0.439926
 20
-0.08461
 11
-0.454025
 21
-0.0868835
  0
LINE
  8
0
 10
-0.454025
 20
-0.0868835
 11
-0.490234
 21
-0.0977478
  0
LINE
  8
0
 10
-0.490234
 20
-0.0977478
 11
-0.509323
 21
-0.108353
  0
LINE
  8
0
 10
-0.509323
 20
-0.108353
 11
-0.524368
 21
-0.121643
  0
LINE
  8
0
 10
-0.524368
 20
-0.121643
 11
-0.514938
 21
-0.15683
  0
LINE
  8
0
 10
-0.514938
 20
-0.15683
 11
-0.49527
 21
-0.160812
  0
LINE
  8
0
 10
-0.49527
 20
-0.160812
 11
-0.473434
 21
-0.160446
  0
LINE
  8
0
 10
-0.473434
 20
-0.160446
 11
-0.43663
 21
-0.151764
  0
LINE
  8
0
 10
-0.43663
 20
-0.151764
 11
-0.423294
 21
-0.146683
  0
LINE
  8
0
 10
-0.423294
 20
-0.146683
 11
-0.40303
 21
-0.195587
  0
LINE
  8
0
 10
-0.40303
 20
-0.195587
 11
-0.416061
 21
-0.201431
  0
LINE
  8
0
 10
-0.416061
 20
-0.201431
 11
-0.448227
 21
-0.221298
  0
LINE
  8
0
 10
-0.448227
 20
-0.221298
 11
-0.463928
 21
-0.236481
  0
LINE
  8
0
 10
-0.463928
 20
-0.236481
 11
-0.475021
 21
-0.253204
  0
LINE
  8
0
 10
-0.475021
 20
-0.253204
 11
-0.456802
 21
-0.284775
  0
LINE
  8
0
 10
-0.456802
 20
-0.284775
 11
-0.436768
 21
-0.283524
  0
LINE
  8
0
 10
-0.436768
 20
-0.283524
 11
-0.415771
 21
-0.277527
  0
LINE
  8
0
 10
-0.415771
 20
-0.277527
 11
-0.382477
 21
-0.259598
  0
LINE
  8
0
 10
-0.382477
 20
-0.259598
 11
-0.370895
 21
-0.251236
  0
LINE
  8
0
 10
-0.370895
 20
-0.251236
 11
-0.338684
 21
-0.293228
  0
LINE
  8
0
 10
-0.338684
 20
-0.293228
 11
-0.349747
 21
-0.302246
  0
LINE
  8
0
 10
-0.349747
 20
-0.302246
 11
-0.375671
 21
-0.329773
  0
LINE
  8
0
 10
-0.375671
 20
-0.329773
 11
-0.386902
 21
-0.348495
  0
LINE
  8
0
 10
-0.386902
 20
-0.348495
 11
-0.393295
 21
-0.367523
  0
LINE
  8
0
 10
-0.393295
 20
-0.367523
 11
-0.367523
 21
-0.393295
  0
LINE
  8
0
 10
-0.367523
 20
-0.393295
 11
-0.348495
 21
-0.386902
  0
LINE
  8
0
 10
-0.348495
 20
-0.386902
 11
-0.329773
 21
-0.375671
  0
LINE
  8
0
 10
-0.329773
 20
-0.375671
 11
-0.302246
 21
-0.349747
  0
LINE
  8
0
 10
-0.302246
 20
-0.349747
 11
-0.293228
 21
-0.338684
  0
LINE
  8
0
 10
-0.293228
 20
-0.338684
 11
-0.251236
 21
-0.370895
  0
LINE
  8
0
 10
-0.251236
 20
-0.370895
 11
-0.259598
 21
-0.382477
  0
LINE
  8
0
 10
-0.259598
 20
-0.382477
 11
-0.277527
 21
-0.415771
  0
LINE
  8
0
 10
-0.277527
 20
-0.415771
 11
-0.283524
 21
-0.436768
  0
LINE
  8
0
 10
-0.283524
 20
-0.436768
 11
-0.284775
 21
-0.456802
  0
LINE
  8
0
 10
-0.284775
 20
-0.456802
 11
-0.253204
 21
-0.475021
  0
LINE
  8
0
 10
-0.253204
 20
-0.475021
 11
-0.236481
 21
-0.463928
  0
LINE
  8
0
 10
-0.236481
 20
-0.463928
 11
-0.221298
 21
-0.448227
  0
LINE
  8
0
 10
-0.221298
 20
-0.448227
 11
-0.201431
 21
-0.416061
  0
LINE
  8
0
 10
-0.201431
 20
-0.416061
 11
-0.195587
 21
-0.40303
  0
LINE
  8
0
 10
-0.195587
 20
-0.40303
 11
-0.146683
 21
-0.423294
  0
LINE
  8
0
 10
-0.146683
 20
-0.423294
 11
-0.151764
 21
-0.43663
  0
LINE
  8
0
 10
-0.151764
 20
-0.43663
 11
-0.160446
 21
-0.473434
  0
LINE
  8
0
 10
-0.160446
 20
-0.473434
 11
-0.160812
 21
-0.49527
  0
LINE
  8
0
 10
-0.160812
 20
-0.49527
 11
-0.15683
 21
-0.514938
  0
LINE
  8
0
 10
-0.15683
 20
-0.514938
 11
-0.121643
 21
-0.524368
  0
LINE
  8
0
 10
-0.121643
 20
-0.524368
 11
-0.108353
 21
-0.509323
  0
LINE
  8
0
 10
-0.108353
 20
-0.509323
 11
-0.0977478
 21
-0.490234
  0
LINE
  8
0
 10
-0.0977478
 20
-0.490234
 11
-0.0868835
 21
-0.454025
  0
LINE
  8
0
 10
-0.0868835
 20
-0.454025
 11
-0.08461
 21
-0.439926
  0
LINE
  8
0
 10
-0.08461
 20
-0.439926
 11
-0.032135
 21
-0.446838
  0
LINE
  8
0
 10
-0.032135
 20
-0.446838
 11
-0.0335846
 21
-0.461044
  0
LINE
  8
0
 10
-0.0335846
 20
-0.461044
 11
-0.0324554
 21
-0.49884
  0
LINE
  8
0
 10
-0.0324554
 20
-0.49884
 11
-0.0271606
 21
-0.52002
  0
LINE
  8
0
 10
-0.0271606
 20
-0.52002
 11
-0.018219
 21
-0.537994
  0
LINE
  8
0
 10
-0.018219
 20
-0.537994
 11
0.0182037
 21
-0.537994
  0
LINE
  8
0
 10
0.0182037
 20
-0.537994
 11
0.0271454
 21
-0.52002
  0
LINE
  8
0
 10
-0.0225525
 20
0.149124
 11
-0.0441132
 21
0.156143
  0
LINE
  8
0
 10
-0.0441132
 20
0.156143
 11
-0.0637512
 21
0.16748
  0
LINE
  8
0
 10
-0.0637512
 20
0.16748
 11
-0.0806122
 21
0.182648
  0
LINE
  8
0
 10
-0.0806122
 20
0.182648
 11
-0.0939331
 21
0.201004
  0
LINE
  8
0
 10
-0.0939331
 20
0.201004
 11
-0.103165
 21
0.221725
  0
LINE
  8
0
 10
-0.103165
 20
0.221725
 11
-0.10788
 21
0.243896
  0
LINE
  8
0
 10
-0.10788
 20
0.243896
 11
-0.10788
 21
0.266586
  0
LINE
  8
0
 10
-0.10788
 20
0.266586
 11
-0.103165
 21
0.288757
  0
LINE
  8
0
 10
-0.103165
 20
0.288757
 11
-0.0939331
 21
0.309479
  0
LINE
  8
0
 10
-0.0939331
 20
0.309479
 11
-0.0806122
 21
0.327835
  0
LINE
  8
0
 10
-0.0806122
 20
0.327835
 11
-0.0637512
 21
0.343002
  0
LINE
  8
0
 10
-0.0637512
 20
0.343002
 11
-0.0441132
 21
0.35434
  0
LINE
  8
0
 10
-0.0441132
 20
0.35434
 11
-0.0225525
 21
0.361359
  0
LINE
  8
0
 10
-0.0225525
 20
0.361359
 11
0
 21
0.363724
  0
LINE
  8
0
 10
0
 20
0.363724
 11
0.0225525
 21
0.361359
  0
LINE
  8
0
 10
0.0225525
 20
0.361359
 11
0.0441132
 21
0.35434
  0
LINE
  8
0
 10
0.0441132
 20
0.35434
 11
0.0637512
 21
0.343002
  0
LINE
  8
0
 10
0.0637512
 20
0.343002
 11
0.0806122
 21
0.327835
  0
LINE
  8
0
 10
0.0806122
 20
0.327835
 11
0.0939331
 21
0.309479
  0
LINE
  8
0
 10
0.0939331
 20
0.309479
 11
0.103165
 21
0.288757
  0
LINE
  8
0
 10
0.103165
 20
0.288757
 11
0.10788
 21
0.266586
  0
LINE
  8
0
 10
0.10788
 20
0.266586
 11
0.10788
 21
0.243896
  0
LINE
  8
0
 10
0.10788
 20
0.243896
 11
0.103165
 21
0.221725
  0
LINE
  8
0
 10
0.103165
 20
0.221725
 11
0.0939331
 21
0.201004
  0
LINE
  8
0
 10
0.0939331
 20
0.201004
 11
0.0806122
 21
0.182648
  0
LINE
  8
0
 10
0.0806122
 20
0.182648
 11
0.0637512
 21
0.16748
  0
LINE
  8
0
 10
0.0637512
 20
0.16748
 11
0.0441132
 21
0.156143
  0
LINE
  8
0
 10
0.0441132
 20
0.156143
 11
0.0225525
 21
0.149124
  0
LINE
  8
0
 10
0.0225525
 20
0.149124
 11
0
 21
0.146759
  0
LINE
  8
0
 10
0
 20
0.146759
 11
-0.0225525
 21
0.149124
  0
LINE
  8
0
 10
-0.233093
 20
0.154938
 11
-0.245544
 21
0.159729
  0
LINE
  8
0
 10
-0.245544
 20
0.159729
 11
-0.256744
 21
0.166992
  0
LINE
  8
0
 10
-0.256744
 20
0.166992
 11
-0.266174
 21
0.176422
  0
LINE
  8
0
 10
-0.266174
 20
0.176422
 11
-0.273438
 21
0.187607
  0
LINE
  8
0
 10
-0.273438
 20
0.187607
 11
-0.278214
 21
0.200058
  0
LINE
  8
0
 10
-0.278214
 20
0.200058
 11
-0.280304
 21
0.213242
  0
LINE
  8
0
 10
-0.280304
 20
0.213242
 11
-0.279602
 21
0.226562
  0
LINE
  8
0
 10
-0.279602
 20
0.226562
 11
-0.276154
 21
0.239441
  0
LINE
  8
0
 10
-0.276154
 20
0.239441
 11
-0.270096
 21
0.251328
  0
LINE
  8
0
 10
-0.270096
 20
0.251328
 11
-0.261703
 21
0.261703
  0
LINE
  8
0
 10
-0.261703
 20
0.261703
 11
-0.251328
 21
0.270096
  0
LINE
  8
0
 10
-0.251328
 20
0.270096
 11
-0.239441
 21
0.276154
  0
LINE
  8
0
 10
-0.239441
 20
0.276154
 11
-0.226562
 21
0.279602
  0
LINE
  8
0
 10
-0.226562
 20
0.279602
 11
-0.213242
 21
0.280304
  0
LINE
  8
0
 10
-0.213242
 20
0.280304
 11
-0.200058
 21
0.278214
  0
LINE
  8
0
 10
-0.200058
 20
0.278214
 11
-0.187607
 21
0.273438
  0
LINE
  8
0
 10
-0.187607
 20
0.273438
 11
-0.176422
 21
0.266174
  0
LINE
  8
0
 10
-0.176422
 20
0.266174
 11
-0.166992
 21
0.256744
  0
LINE
  8
0
 10
-0.166992
 20
0.256744
 11
-0.159729
 21
0.245544
  0
LINE
  8
0
 10
-0.159729
 20
0.245544
 11
-0.154938
 21
0.233093
  0
LINE
  8
0
 10
-0.154938
 20
0.233093
 11
-0.152847
 21
0.219925
  0
LINE
  8
0
 10
-0.152847
 20
0.219925
 11
-0.153549
 21
0.206604
  0
LINE
  8
0
 10
-0.153549
 20
0.206604
 11
-0.156998
 21
0.19371
  0
LINE
  8
0
 10
-0.156998
 20
0.19371
 11
-0.163055
 21
0.181824
  0
LINE
  8
0
 10
-0.163055
 20
0.181824
 11
-0.171463
 21
0.171463
  0
LINE
  8
0
 10
-0.171463
 20
0.171463
 11
-0.181824
 21
0.163055
  0
LINE
  8
0
 10
-0.181824
 20
0.163055
 11
-0.19371
 21
0.156998
  0
LINE
  8
0
 10
-0.19371
 20
0.156998
 11
-0.206604
 21
0.153549
  0
LINE
  8
0
 10
-0.206604
 20
0.153549
 11
-0.219925
 21
0.152847
  0
LINE
  8
0
 10
-0.219925
 20
0.152847
 11
-0.233093
 21
0.154938
  0
LINE
  8
0
 10
0.206604
 20
0.153549
 11
0.19371
 21
0.156998
  0
LINE
  8
0
 10
0.19371
 20
0.156998
 11
0.181824
 21
0.163055
  0
LINE
  8
0
 10
0.181824
 20
0.163055
 11
0.171463
 21
0.171463
  0
LINE
  8
0
 10
0.171463
 20
0.171463
 11
0.163055
 21
0.181824
  0
LINE
  8
0
 10
0.163055
 20
0.181824
 11
0.156998
 21
0.19371
  0
LINE
  8
0
 10
0.156998
 20
0.19371
 11
0.153549
 21
0.206604
  0
LINE
  8
0
 10
0.153549
 20
0.206604
 11
0.152847
 21
0.219925
  0
LINE
  8
0
 10
0.152847
 20
0.219925
 11
0.154938
 21
0.233093
  0
LINE
  8
0
 10
0.154938
 20
0.233093
 11
0.159729
 21
0.245544
  0
LINE
  8
0
 10
0.159729
 20
0.245544
 11
0.166992
 21
0.256744
  0
LINE
  8
0
 10
0.166992
 20
0.256744
 11
0.176422
 21
0.266174
  0
LINE
  8
0
 10
0.176422
 20
0.266174
 11
0.187607
 21
0.273438
  0
LINE
  8
0
 10
0.187607
 20
0.273438
 11
0.200058
 21
0.278214
  0
LINE
  8
0
 10
0.200058
 20
0.278214
 11
0.213242
 21
0.280304
  0
LINE
  8
0
 10
0.213242
 20
0.280304
 11
0.226562
 21
0.279602
  0
LINE
  8
0
 10
0.226562
 20
0.279602
 11
0.239441
 21
0.276154
  0
LINE
  8
0
 10
0.239441
 20
0.276154
 11
0.251328
 21
0.270096
  0
LINE
  8
0
 10
0.251328
 20
0.270096
 11
0.261703
 21
0.261703
  0
LINE
  8
0
 10
0.261703
 20
0.261703
 11
0.270096
 21
0.251328
  0
LINE
  8
0
 10
0.270096
 20
0.251328
 11
0.276154
 21
0.239441
  0
LINE
  8
0
 10
0.276154
 20
0.239441
 11
0.279602
 21
0.226562
  0
LINE
  8
0
 10
0.279602
 20
0.226562
 11
0.280304
 21
0.213242
  0
LINE
  8
0
 10
0.280304
 20
0.213242
 11
0.278214
 21
0.200058
  0
LINE
  8
0
 10
0.278214
 20
0.200058
 11
0.273438
 21
0.187607
  0
LINE
  8
0
 10
0.273438
 20
0.187607
 11
0.266174
 21
0.176422
  0
LINE
  8
0
 10
0.266174
 20
0.176422
 11
0.256744
 21
0.166992
  0
LINE
  8
0
 10
0.256744
 20
0.166992
 11
0.245544
 21
0.159729
  0
LINE
  8
0
 10
0.245544
 20
0.159729
 11
0.233093
 21
0.154938
  0
LINE
  8
0
 10
0.233093
 20
0.154938
 11
0.219925
 21
0.152847
  0
LINE
  8
0
 10
0.219925
 20
0.152847
 11
0.206604
 21
0.153549
  0
LINE
  8
0
 10
-0.266586
 20
-0.10788
 11
-0.288757
 21
-0.103165
  0
LINE
  8
0
 10
-0.288757
 20
-0.103165
 11
-0.309479
 21
-0.0939331
  0
LINE
  8
0
 10
-0.309479
 20
-0.0939331
 11
-0.327835
 21
-0.0806122
  0
LINE
  8
0
 10
-0.327835
 20
-0.0806122
 11
-0.343002
 21
-0.0637512
  0
LINE
  8
0
 10
-0.343002
 20
-0.0637512
 11
-0.35434
 21
-0.0441132
  0
LINE
  8
0
 10
-0.35434
 20
-0.0441132
 11
-0.361359
 21
-0.0225525
  0
LINE
  8
0
 10
-0.361359
 20
-0.0225525
 11
-0.363724
 21
0
  0
LINE
  8
0
 10
-0.363724
 20
0
 11
-0.361359
 21
0.0225525
  0
LINE
  8
0
 10
-0.361359
 20
0.0225525
 11
-0.35434
 21
0.0441132
  0
LINE
  8
0
 10
-0.35434
 20
0.0441132
 11
-0.343002
 21
0.0637512
  0
LINE
  8
0
 10
-0.343002
 20
0.0637512
 11
-0.327835
 21
0.0806122
  0
LINE
  8
0
 10
-0.327835
 20
0.0806122
 11
-0.309479
 21
0.0939331
  0
LINE
  8
0
 10
-0.309479
 20
0.0939331
 11
-0.288757
 21
0.103165
  0
LINE
  8
0
 10
-0.288757
 20
0.103165
 11
-0.266586
 21
0.10788
  0
LINE
  8
0
 10
-0.266586
 20
0.10788
 11
-0.243896
 21
0.10788
  0
LINE
  8
0
 10
-0.243896
 20
0.10788
 11
-0.221725
 21
0.103165
  0
LINE
  8
0
 10
-0.221725
 20
0.103165
 11
-0.201004
 21
0.0939331
  0
LINE
  8
0
 10
-0.201004
 20
0.0939331
 11
-0.182648
 21
0.0806122
  0
LINE
  8
0
 10
-0.182648
 20
0.0806122
 11
-0.16748
 21
0.0637512
  0
LINE
  8
0
 10
-0.16748
 20
0.0637512
 11
-0.156143
 21
0.0441132
  0
LINE
  8
0
 10
-0.156143
 20
0.0441132
 11
-0.149124
 21
0.0225525
  0
LINE
  8
0
 10
-0.149124
 20
0.0225525
 11
-0.146759
 21
0
  0
LINE
  8
0
 10
-0.146759
 20
0
 11
-0.149124
 21
-0.0225525
  0
LINE
  8
0
 10
-0.149124
 20
-0.0225525
 11
-0.156143
 21
-0.0441132
  0
LINE
  8
0
 10
-0.156143
 20
-0.0441132
 11
-0.16748
 21
-0.0637512
  0
LINE
  8
0
 10
-0.16748
 20
-0.0637512
 11
-0.182648
 21
-0.0806122
  0
LINE
  8
0
 10
-0.182648
 20
-0.0806122
 11
-0.201004
 21
-0.0939331
  0
LINE
  8
0
 10
-0.201004
 20
-0.0939331
 11
-0.221725
 21
-0.103165
  0
LINE
  8
0
 10
-0.221725
 20
-0.103165
 11
-0.243896
 21
-0.10788
  0
LINE
  8
0
 10
-0.243896
 20
-0.10788
 11
-0.266586
 21
-0.10788
  0
LINE
  8
0
 10
0.243896
 20
-0.10788
 11
0.221725
 21
-0.103165
  0
LINE
  8
0
 10
0.221725
 20
-0.103165
 11
0.201004
 21
-0.0939331
  0
LINE
  8
0
 10
0.201004
 20
-0.0939331
 11
0.182648
 21
-0.0806122
  0
LINE
  8
0
 10
0.182648
 20
-0.0806122
 11
0.16748
 21
-0.0637512
  0
LINE
  8
0
 10
0.16748
 20
-0.0637512
 11
0.156143
 21
-0.0441132
  0
LINE
  8
0
 10
0.156143
 20
-0.0441132
 11
0.149124
 21
-0.0225525
  0
LINE
  8
0
 10
0.149124
 20
-0.0225525
 11
0.146759
 21
0
  0
LINE
  8
0
 10
0.146759
 20
0
 11
0.149124
 21
0.0225525
  0
LINE
  8
0
 10
0.149124
 20
0.0225525
 11
0.156143
 21
0.0441132
  0
LINE
  8
0
 10
0.156143
 20
0.0441132
 11
0.16748
 21
0.0637512
  0
LINE
  8
0
 10
0.16748
 20
0.0637512
 11
0.182648
 21
0.0806122
  0
LINE
  8
0
 10
0.182648
 20
0.0806122
 11
0.201004
 21
0.0939331
  0
LINE
  8
0
 10
0.201004
 20
0.0939331
 11
0.221725
 21
0.103165
  0
LINE
  8
0
 10
0.221725
 20
0.103165
 11
0.243896
 21
0.10788
  0
LINE
  8
0
 10
0.243896
 20
0.10788
 11
0.266586
 21
0.10788
  0
LINE
  8
0
 10
0.266586
 20
0.10788
 11
0.288757
 21
0.103165
  0
LINE
  8
0
 10
0.288757
 20
0.103165
 11
0.309479
 21
0.0939331
  0
LINE
  8
0
 10
0.309479
 20
0.0939331
 11
0.327835
 21
0.0806122
  0
LINE
  8
0
 10
0.327835
 20
0.0806122
 11
0.343002
 21
0.0637512
  0
LINE
  8
0
 10
0.343002
 20
0.0637512
 11
0.35434
 21
0.0441132
  0
LINE
  8
0
 10
0.35434
 20
0.0441132
 11
0.361359
 21
0.0225525
  0
LINE
  8
0
 10
0.361359
 20
0.0225525
 11
0.363724
 21
0
  0
LINE
  8
0
 10
0.363724
 20
0
 11
0.361359
 21
-0.0225525
  0
LINE
  8
0
 10
0.361359
 20
-0.0225525
 11
0.35434
 21
-0.0441132
  0
LINE
  8
0
 10
0.35434
 20
-0.0441132
 11
0.343002
 21
-0.0637512
  0
LINE
  8
0
 10
0.343002
 20
-0.0637512
 11
0.327835
 21
-0.0806122
  0
LINE
  8
0
 10
0.327835
 20
-0.0806122
 11
0.309479
 21
-0.0939331
  0
LINE
  8
0
 10
0.309479
 20
-0.0939331
 11
0.288757
 21
-0.103165
  0
LINE
  8
0
 10
0.288757
 20
-0.103165
 11
0.266586
 21
-0.10788
  0
LINE
  8
0
 10
0.266586
 20
-0.10788
 11
0.243896
 21
-0.10788
  0
LINE
  8
0
 10
-0.00653076
 20
-0.062149
 11
-0.0193024
 21
-0.059433
  0
LINE
  8
0
 10
-0.0193024
 20
-0.059433
 11
-0.03125
 21
-0.0541229
  0
LINE
  8
0
 10
-0.03125
 20
-0.0541229
 11
-0.0418091
 21
-0.0464325
  0
LINE
  8
0
 10
-0.0418091
 20
-0.0464325
 11
-0.0505524
 21
-0.0367279
  0
LINE
  8
0
 10
-0.0505524
 20
-0.0367279
 11
-0.0570831
 21
-0.0254059
  0
LINE
  8
0
 10
-0.0570831
 20
-0.0254059
 11
-0.0611267
 21
-0.0129852
  0
LINE
  8
0
 10
-0.0611267
 20
-0.0129852
 11
-0.0625
 21
0
  0
LINE
  8
0
 10
-0.0625
 20
0
 11
-0.0611267
 21
0.0129852
  0
LINE
  8
0
 10
-0.0611267
 20
0.0129852
 11
-0.0570831
 21
0.0254059
  0
LINE
  8
0
 10
-0.0570831
 20
0.0254059
 11
-0.0505524
 21
0.0367279
  0
LINE
  8
0
 10
-0.0505524
 20
0.0367279
 11
-0.0418091
 21
0.0464325
  0
LINE
  8
0
 10
-0.0418091
 20
0.0464325
 11
-0.0312347
 21
0.0541229
  0
LINE
  8
0
 10
-0.0312347
 20
0.0541229
 11
-0.0193024
 21
0.059433
  0
LINE
  8
0
 10
-0.0193024
 20
0.059433
 11
-0.00653076
 21
0.062149
  0
LINE
  8
0
 10
-0.00653076
 20
0.062149
 11
0.00653076
 21
0.062149
  0
LINE
  8
0
 10
0.00653076
 20
0.062149
 11
0.0193024
 21
0.059433
  0
LINE
  8
0
 10
0.0193024
 20
0.059433
 11
0.03125
 21
0.0541229
  0
LINE
  8
0
 10
0.03125
 20
0.0541229
 11
0.0418091
 21
0.0464325
  0
LINE
  8
0
 10
0.0418091
 20
0.0464325
 11
0.0505524
 21
0.0367279
  0
LINE
  8
0
 10
0.0505524
 20
0.0367279
 11
0.0570831
 21
0.0254059
  0
LINE
  8
0
 10
0.0570831
 20
0.0254059
 11
0.0611267
 21
0.0129852
  0
LINE
  8
0
 10
0.0611267
 20
0.0129852
 11
0.0625
 21
0
  0
LINE
  8
0
 10
0.0625
 20
0
 11
0.0611267
 21
-0.0129852
  0
LINE
  8
0
 10
0.0611267
 20
-0.0129852
 11
0.0570831
 21
-0.0254059
  0
LINE
  8
0
 10
0.0570831
 20
-0.0254059
 11
0.0505524
 21
-0.0367279
  0
LINE
  8
0
 10
0.0505524
 20
-0.0367279
 11
0.0418091
 21
-0.0464325
  0
LINE
  8
0
 10
0.0418091
 20
-0.0464325
 11
0.03125
 21
-0.0541229
  0
LINE
  8
0
 10
0.03125
 20
-0.0541229
 11
0.0193024
 21
-0.059433
  0
LINE
  8
0
 10
0.0193024
 20
-0.059433
 11
0.00653076
 21
-0.062149
  0
LINE
  8
0
 10
0.00653076
 20
-0.062149
 11
-0.00653076
 21
-0.062149
  0
LINE
  8
0
 10
-0.0225525
 20
-0.361359
 11
-0.0441132
 21
-0.35434
  0
LINE
  8
0
 10
-0.0441132
 20
-0.35434
 11
-0.0637512
 21
-0.343002
  0
LINE
  8
0
 10
-0.0637512
 20
-0.343002
 11
-0.0806122
 21
-0.327835
  0
LINE
  8
0
 10
-0.0806122
 20
-0.327835
 11
-0.0939331
 21
-0.309479
  0
LINE
  8
0
 10
-0.0939331
 20
-0.309479
 11
-0.103165
 21
-0.288757
  0
LINE
  8
0
 10
-0.103165
 20
-0.288757
 11
-0.10788
 21
-0.266586
  0
LINE
  8
0
 10
-0.10788
 20
-0.266586
 11
-0.10788
 21
-0.243896
  0
LINE
  8
0
 10
-0.10788
 20
-0.243896
 11
-0.103165
 21
-0.221725
  0
LINE
  8
0
 10
-0.103165
 20
-0.221725
 11
-0.0939331
 21
-0.201004
  0
LINE
  8
0
 10
-0.0939331
 20
-0.201004
 11
-0.0806122
 21
-0.182648
  0
LINE
  8
0
 10
-0.0806122
 20
-0.182648
 11
-0.0637512
 21
-0.16748
  0
LINE
  8
0
 10
-0.0637512
 20
-0.16748
 11
-0.0441132
 21
-0.156143
  0
LINE
  8
0
 10
-0.0441132
 20
-0.156143
 11
-0.0225525
 21
-0.149124
  0
LINE
  8
0
 10
-0.0225525
 20
-0.149124
 11
0
 21
-0.146759
  0
LINE
  8
0
 10
0
 20
-0.146759
 11
0.0225525
 21
-0.149124
  0
LINE
  8
0
 10
0.0225525
 20
-0.149124
 11
0.0441132
 21
-0.156143
  0
LINE
  8
0
 10
0.0441132
 20
-0.156143
 11
0.0637512
 21
-0.16748
  0
LINE
  8
0
 10
0.0637512
 20
-0.16748
 11
0.0806122
 21
-0.182648
  0
LINE
  8
0
 10
0.0806122
 20
-0.182648
 11
0.0939331
 21
-0.201004
  0
LINE
  8
0
 10
0.0939331
 20
-0.201004
 11
0.103165
 21
-0.221725
  0
LINE
  8
0
 10
0.103165
 20
-0.221725
 11
0.10788
 21
-0.243896
  0
LINE
  8
0
 10
0.10788
 20
-0.243896
 11
0.10788
 21
-0.266586
  0
LINE
  8
0
 10
0.10788
 20
-0.266586
 11
0.103165
 21
-0.288757
  0
LINE
  8
0
 10
0.103165
 20
-0.288757
 11
0.0939331
 21
-0.309479
  0
LINE
  8
0
 10
0.0939331
 20
-0.309479
 11
0.0806122
 21
-0.327835
  0
LINE
  8
0
 10
0.0806122
 20
-0.327835
 11
0.0637512
 21
-0.343002
  0
LINE
  8
0
 10
0.0637512
 20
-0.343002
 11
0.0441132
 21
-0.35434
  0
LINE
  8
0
 10
0.0441132
 20
-0.35434
 11
0.0225525
 21
-0.361359
  0
LINE
  8
0
 10
0.0225525
 20
-0.361359
 11
0
 21
-0.363724
  0
LINE
  8
0
 10
0
 20
-0.363724
 11
-0.0225525
 21
-0.361359
  0
LINE
  8
0
 10
-0.226562
 20
-0.279602
 11
-0.239441
 21
-0.276154
  0
LINE
  8
0
 10
-0.239441
 20
-0.276154
 11
-0.251328
 21
-0.270096
  0
LINE
  8
0
 10
-0.251328
 20
-0.270096
 11
-0.261703
 21
-0.261703
  0
LINE
  8
0
 10
-0.261703
 20
-0.261703
 11
-0.270096
 21
-0.251328
  0
LINE
  8
0
 10
-0.270096
 20
-0.251328
 11
-0.276154
 21
-0.239441
  0
LINE
  8
0
 10
-0.276154
 20
-0.239441
 11
-0.279602
 21
-0.226562
  0
LINE
  8
0
 10
-0.279602
 20
-0.226562
 11
-0.280304
 21
-0.213242
  0
LINE
  8
0
 10
-0.280304
 20
-0.213242
 11
-0.278214
 21
-0.200058
  0
LINE
  8
0
 10
-0.278214
 20
-0.200058
 11
-0.273438
 21
-0.187607
  0
LINE
  8
0
 10
-0.273438
 20
-0.187607
 11
-0.266174
 21
-0.176422
  0
LINE
  8
0
 10
-0.266174
 20
-0.176422
 11
-0.256744
 21
-0.166992
  0
LINE
  8
0
 10
-0.256744
 20
-0.166992
 11
-0.245544
 21
-0.159729
  0
LINE
  8
0
 10
-0.245544
 20
-0.159729
 11
-0.233093
 21
-0.154938
  0
LINE
  8
0
 10
-0.233093
 20
-0.154938
 11
-0.219925
 21
-0.152847
  0
LINE
  8
0
 10
-0.219925
 20
-0.152847
 11
-0.206604
 21
-0.153549
  0
LINE
  8
0
 10
-0.206604
 20
-0.153549
 11
-0.19371
 21
-0.156998
  0
LINE
  8
0
 10
-0.19371
 20
-0.156998
 11
-0.181824
 21
-0.163055
  0
LINE
  8
0
 10
-0.181824
 20
-0.163055
 11
-0.171463
 21
-0.171463
  0
LINE
  8
0
 10
-0.171463
 20
-0.171463
 11
-0.163055
 21
-0.181824
  0
LINE
  8
0
 10
-0.163055
 20
-0.181824
 11
-0.156998
 21
-0.19371
  0
LINE
  8
0
 10
-0.156998
 20
-0.19371
 11
-0.153549
 21
-0.206604
  0
LINE
  8
0
 10
-0.153549
 20
-0.206604
 11
-0.152847
 21
-0.219925
  0
LINE
  8
0
 10
-0.152847
 20
-0.219925
 11
-0.154938
 21
-0.233093
  0
LINE
  8
0
 10
-0.154938
 20
-0.233093
 11
-0.159729
 21
-0.245544
  0
LINE
  8
0
 10
-0.159729
 20
-0.245544
 11
-0.166992
 21
-0.256744
  0
LINE
  8
0
 10
-0.166992
 20
-0.256744
 11
-0.176422
 21
-0.266174
  0
LINE
  8
0
 10
-0.176422
 20
-0.266174
 11
-0.187607
 21
-0.273438
  0
LINE
  8
0
 10
-0.187607
 20
-0.273438
 11
-0.200058
 21
-0.278214
  0
LINE
  8
0
 10
-0.200058
 20
-0.278214
 11
-0.213242
 21
-0.280304
  0
LINE
  8
0
 10
-0.213242
 20
-0.280304
 11
-0.226562
 21
-0.279602
  0
LINE
  8
0
 10
0.200058
 20
-0.278214
 11
0.187607
 21
-0.273438
  0
LINE
  8
0
 10
0.187607
 20
-0.273438
 11
0.176422
 21
-0.266174
  0
LINE
  8
0
 10
0.176422
 20
-0.266174
 11
0.166992
 21
-0.256744
  0
LINE
  8
0
 10
0.166992
 20
-0.256744
 11
0.159729
 21
-0.245544
  0
LINE
  8
0
 10
0.159729
 20
-0.245544
 11
0.154938
 21
-0.233093
  0
LINE
  8
0
 10
0.154938
 20
-0.233093
 11
0.152847
 21
-0.219925
  0
LINE
  8
0
 10
0.152847
 20
-0.219925
 11
0.153549
 21
-0.206604
  0
LINE
  8
0
 10
0.153549
 20
-0.206604
 11
0.156998
 21
-0.19371
  0
LINE
  8
0
 10
0.156998
 20
-0.19371
 11
0.163055
 21
-0.181824
  0
LINE
  8
0
 10
0.163055
 20
-0.181824
 11
0.171463
 21
-0.171463
  0
LINE
  8
0
 10
0.171463
 20
-0.171463
 11
0.181824
 21
-0.163055
  0
LINE
  8
0
 10
0.181824
 20
-0.163055
 11
0.19371
 21
-0.156998
  0
LINE
  8
0
 10
0.19371
 20
-0.156998
 11
0.206604
 21
-0.153549
  0
LINE
  8
0
 10
0.206604
 20
-0.153549
 11
0.219925
 21
-0.152847
  0
LINE
  8
0
 10
0.219925
 20
-0.152847
 11
0.233093
 21
-0.154938
  0
LINE
  8
0
 10
0.233093
 20
-0.154938
 11
0.245544
 21
-0.159729
  0
LINE
  8
0
 10
0.245544
 20
-0.159729
 11
0.256744
 21
-0.166992
  0
LINE
  8
0
 10
0.256744
 20
-0.166992
 11
0.266174
 21
-0.176422
  0
LINE
  8
0
 10
0.266174
 20
-0.176422
 11
0.273438
 21
-0.187607
  0
LINE
  8
0
 10
0.273438
 20
-0.187607
 11
0.278214
 21
-0.200058
  0
LINE
  8
0
 10
0.278214
 20
-0.200058
 11
0.280304
 21
-0.213242
  0
LINE
  8
0
 10
0.280304
 20
-0.213242
 11
0.279602
 21
-0.226562
  0
LINE
  8
0
 10
0.279602
 20
-0.226562
 11
0.276154
 21
-0.239441
  0
LINE
  8
0
 10
0.276154
 20
-0.239441
 11
0.270096
 21
-0.251328
  0
LINE
  8
0
 10
0.270096
 20
-0.251328
 11
0.261703
 21
-0.261703
  0
LINE
  8
0
 10
0.261703
 20
-0.261703
 11
0.251328
 21
-0.270096
  0
LINE
  8
0
 10
0.251328
 20
-0.270096
 11
0.239441
 21
-0.276154
  0
LINE
  8
0
 10
0.239441
 20
-0.276154
 11
0.226562
 21
-0.279602
  0
LINE
  8
0
 10
0.226562
 20
-0.279602
 11
0.213242
 21
-0.280304
  0
LINE
  8
0
 10
0.213242
 20
-0.280304
 11
0.200058
 21
-0.278214
  0
ENDSEC
  0
SECTION
  2
OBJECTS
  0
DICTIONARY
  0
ENDSEC
  0
EOF
